<?xml version="1.0" encoding="utf-8"?>
<!-- Generator: Adobe Illustrator 16.0.0, SVG Export Plug-In . SVG Version: 6.00 Build 0)  -->
<!DOCTYPE svg PUBLIC "-//W3C//DTD SVG 1.1//EN" "http://www.w3.org/Graphics/SVG/1.1/DTD/svg11.dtd">
<svg version="1.1" xmlns="http://www.w3.org/2000/svg" xmlns:xlink="http://www.w3.org/1999/xlink" x="0px" y="0px"
	 width="352.41px" height="104.286px" viewBox="0 0 352.41 104.286" enable-background="new 0 0 352.41 104.286"
	 xml:space="preserve">
<g id="Laag_1">
</g>
<g id="_x3C_Laag_x3E_">
	<g>
		<g>
			<g>
				<g>
					<path d="M133.339,34.756h-28.905c-0.388,0-0.705,0.316-0.705,0.705v5.35c0,0.388,0.317,0.705,0.705,0.705h2.594
						c0.388,0,0.703-0.317,0.703-0.705v-1.72h7.678v26.348h-3.002c-0.388,0-0.707,0.316-0.707,0.704v2.667
						c0,0.39,0.319,0.705,0.707,0.705h12.886c0.39,0,0.707-0.315,0.707-0.705v-2.667c0-0.388-0.317-0.704-0.707-0.704h-3V39.091
						h7.671v1.72c0,0.388,0.319,0.705,0.705,0.705h2.67c0.388,0,0.703-0.317,0.703-0.705v-5.35
						C134.042,35.073,133.727,34.756,133.339,34.756z"/>
				</g>
				<g>
					<path d="M309.847,49.532c-1.099-0.626-2.309-1.33-3.608-2.082l-1.517-0.879c-2.274-1.336-2.896-2.135-2.896-3.723
						c0-2.508,1.933-4.129,4.922-4.129c1.812,0,2.99,0.347,5.359,1.599v1.567c0,0.388,0.318,0.704,0.71,0.704h2.665
						c0.39,0,0.703-0.316,0.703-0.704v-4.583c0-0.229-0.111-0.446-0.305-0.58c-0.144-0.097-3.604-2.443-9.639-2.443
						c-6.183,0-11.023,4.4-11.023,10.016c0,4.59,2.246,7.262,8.904,10.593c5.72,2.89,7.555,4.594,7.555,7.018
						c0,2.396-2.318,4.133-5.508,4.133c-2.242,0-4.061-0.566-6.656-2.077v-1.737c0-0.388-0.316-0.705-0.703-0.705h-2.674
						c-0.386,0-0.702,0.316-0.702,0.705v6.6c0,0.389,0.316,0.702,0.702,0.702h2.674c0.356,0,0.646-0.264,0.698-0.604
						c2.585,1.307,4.968,1.916,7.46,1.916c6.37,0,11.17-4.396,11.17-10.231C318.139,55.607,316.276,53.122,309.847,49.532z"/>
				</g>
				<g>
					<path d="M274.392,35.679c0,0-0.828-1.917-3.544-2.174l-13.963,31.934h-1.479c-0.387,0-0.706,0.314-0.706,0.705v2.672
						c0,0.388,0.319,0.705,0.706,0.705h7.684c0.39,0,0.703-0.317,0.703-0.705v-2.672c0-0.391-0.313-0.705-0.703-0.705h-1.418
						l2.845-6.458h12.206l2.666,6.458h-1.317c-0.39,0-0.702,0.314-0.702,0.705v2.672c0,0.388,0.312,0.705,0.702,0.705h9.4
						c0.235,0,0.456-0.117,0.588-0.315c0.13-0.198,0.151-0.445,0.062-0.661L274.392,35.679z M271.48,46.345
						c0.463,1.084,3.507,8.408,3.507,8.408h-8.632l4.108-9.494C270.464,45.259,271.02,45.262,271.48,46.345z"/>
				</g>
				<g>
					<path d="M58.793,63.01h-2.667c-0.39,0-0.705,0.316-0.705,0.704v1.509H44.56V54.001h6.286v1.287
						c0,0.388,0.317,0.705,0.705,0.705h2.672c0.39,0,0.707-0.317,0.707-0.705V48.56c0-0.416-0.306-0.707-0.688-0.707l-2.708,0.002
						c-0.384,0.008-0.688,0.318-0.688,0.705v1.142H44.56V39.057h10.425v1.436c0,0.392,0.319,0.708,0.707,0.708h2.599
						c0.388,0,0.703-0.317,0.703-0.708v-5.025c0-0.388-0.315-0.705-0.703-0.705H41.165c-0.999,0-3.504,0.825-3.504,2.995
						c0,2.169,0,27.681,0,27.681h-2.282c-0.39,0-0.705,0.316-0.705,0.704v2.673c0,0.387,0.314,0.704,0.705,0.704h23.415
						c0.39,0,0.709-0.317,0.709-0.704v-5.102C59.502,63.327,59.183,63.01,58.793,63.01z"/>
				</g>
				<g>
					<path d="M165.031,63.01h-2.672c-0.389,0-0.703,0.316-0.703,0.704v1.509h-10.859V54.001h6.287v1.287
						c0,0.388,0.315,0.705,0.703,0.705h2.672c0.39,0,0.706-0.317,0.706-0.705V48.56c0-0.416-0.311-0.707-0.689-0.707l-2.708,0.002
						c-0.385,0.008-0.683,0.318-0.683,0.705v1.142h-6.287V39.057h10.424v1.436c0,0.392,0.315,0.708,0.707,0.708h2.595
						c0.391,0,0.708-0.317,0.708-0.708v-5.025c0-0.388-0.317-0.705-0.708-0.705h-17.121c-0.998,0-3.504,0.825-3.504,2.995
						c0,2.169,0,27.681,0,27.681h-2.279c-0.39,0-0.708,0.316-0.708,0.704v2.673c0,0.387,0.318,0.704,0.708,0.704h23.413
						c0.388,0,0.705-0.317,0.705-0.704v-5.102C165.736,63.327,165.419,63.01,165.031,63.01z"/>
				</g>
				<g>
					<path d="M232.66,34.772h-8.923c-0.883,0-3.464,0.812-3.464,2.995c0,2.825-0.007,27.682-0.007,27.682h-3.093
						c-0.389,0-0.705,0.316-0.705,0.701v2.675c0,0.391,0.316,0.702,0.705,0.702h15.486c10.357,0,18.169-7.468,18.169-17.376
						C250.829,42.402,242.851,34.772,232.66,34.772z M232.084,65.232h-4.925V39.066h5c6.199,0,11.056,5.779,11.056,13.16
						C243.215,59.641,238.428,65.232,232.084,65.232z"/>
				</g>
				<g>
					<path d="M203.112,70.097c2,0,3.159-0.809,3.301-2.113V39.057h2.283c0.39,0,0.705-0.316,0.705-0.705v-2.888
						c0-0.388-0.315-0.705-0.705-0.705h-9.657c-0.387,0-0.703,0.317-0.703,0.705v2.888c0,0.388,0.316,0.705,0.703,0.705h2.355
						v18.047c0,0-19.368-22.344-19.573-22.344c-0.948-0.004-3.545,0.812-3.545,2.991l0.013,27.688h-2.27
						c-0.391,0-0.707,0.316-0.707,0.704v2.673c0,0.389,0.316,0.704,0.707,0.704h9.655c0.386,0,0.702-0.315,0.702-0.704v-2.673
						c0-0.388-0.316-0.704-0.705-0.704l-2.354,0.002V46.759L203.112,70.097z"/>
				</g>
				<g>
					<path fill="#DD4814" d="M98.026,65.441h-2.322L85.336,51.52l12.488-16.767h-6.906l-9.035,12.131l-9.035-12.131h-8.574
						l11.134,14.949h4.376l-14.76,19.817h6.906l9.119-12.243l9.119,12.243l7.858,0.006c0.39,0,0.708-0.319,0.708-0.709V66.15
						C98.735,65.76,98.416,65.441,98.026,65.441z"/>
				</g>
			</g>
		</g>
	</g>
</g>
</svg>
